<svg id="Layer_1" data-name="Layer 1" xmlns="http://www.w3.org/2000/svg" width="377.18" height="152" viewBox="0 0 377.18 152"><defs><style>.cls-1,.cls-13,.cls-15,.cls-16,.cls-18,.cls-19,.cls-2,.cls-20,.cls-3,.cls-6,.cls-8{stroke:#000;}.cls-1{stroke-miterlimit:3.86;stroke-width:1.27px;}.cls-2,.cls-7{fill:#ec1c24;}.cls-11,.cls-17,.cls-19,.cls-3,.cls-5{fill:none;}.cls-11,.cls-13,.cls-15,.cls-17,.cls-19,.cls-21,.cls-3,.cls-5{stroke-miterlimit:2.92;}.cls-11,.cls-3,.cls-5{stroke-width:2.24px;}.cls-10,.cls-4,.cls-8{fill:#fff100;}.cls-17,.cls-5{stroke:#ec1c24;}.cls-12,.cls-6,.cls-9{fill:#fff;}.cls-10,.cls-11,.cls-12{stroke:#898989;}.cls-13,.cls-15,.cls-17,.cls-19,.cls-21{stroke-width:1.05px;}.cls-14,.cls-15,.cls-16,.cls-21{fill:#f9ce62;}.cls-14{stroke:#232323;}.cls-14,.cls-16,.cls-18,.cls-20{stroke-miterlimit:10;}.cls-20{fill:#898989;}.cls-21{stroke:#222;}.cls-22{fill:#e7b244;}.cls-23{fill:#231f20;}</style></defs><title>gw</title><path class="cls-1" d="M291.78,73.93c3.4-2.7,6.2-6.8,7.7-12.7,1.3-7.2.4-11.4-1.2-17.8V11.93H283s-19.6-1.7-23.7,5.5V12h-6.1s-31.3-2.7-39.4,17l-11-23.6-9.5,19.7-9.6-19.3L170,33.13,153,1.33l-17.9,32.4c-1.7-9.7-9.4-21.5-27.2-21.4-25.8.1-30,18.4-29.9,35.5.1,8.2,2.2,17.7,8.4,24.1H1l29.7,66.8h36.4l6.2-14.3a34.86,34.86,0,0,0,48.3,10.8v3.5h102.5s4.7.3,5.8-2.3v2.3H283l-.1-4.1a34.15,34.15,0,0,0,39.1.3V151l32.5-13.7v-17.4c5.7-2,17.7-7.4,17.7-22,0-22.2-14.3-25.2-24.2-25.5H322v4.2a34.62,34.62,0,0,0-19.1-5.7,20.19,20.19,0,0,0-11.1,3Z"/><path class="cls-2" d="M326.68,143.23V77h16.8s23-2.2,23,20.2c0,15.7-17.4,18.5-17.4,18.5v17.9l-22.4,9.6Z"/><path class="cls-3" d="M326.68,143.23V77h16.8s23-2.2,23,20.2c0,15.7-17.4,18.5-17.4,18.5v17.9l-22.4,9.6Z"/><path class="cls-4" d="M332.28,82.63V135l11.2-4.6.1-19.2s17.4-.6,17.4-14c0-14-11.8-14.6-11.8-14.6Z"/><path class="cls-5" d="M332.28,82.63V135l11.2-4.6.1-19.2s17.4-.6,17.4-14c0-14-11.8-14.6-11.8-14.6Z"/><path class="cls-6" d="M326.68,143.23V77h16.8s7.8-.6,7.8,2.8c0,2.8-2.2,2.8-2.2,2.8h-16.8V135l-5.6,8.2Z"/><path class="cls-3" d="M326.68,143.23V77h16.8s7.8-.6,7.8,2.8c0,2.8-2.2,2.8-2.2,2.8h-16.8V135l-5.6,8.2Z"/><path class="cls-7" d="M343.48,93.33s5.6-1.1,5.6,3.9-5.6,3.9-5.6,3.9v-7.8Z"/><path class="cls-5" d="M343.48,93.33s5.6-1.1,5.6,3.9-5.6,3.9-5.6,3.9v-7.8Z"/><polygon class="cls-2" points="233.58 77.03 233.58 133.74 254.88 133.74 254.88 116.33 257.08 116.33 257.08 133.74 278.48 133.74 278.48 77.03 257.08 77.03 257.08 93.33 254.88 93.33 254.88 77.03 233.58 77.03"/><polygon class="cls-3" points="233.58 77.03 233.58 133.74 254.88 133.74 254.88 116.33 257.08 116.33 257.08 133.74 278.48 133.74 278.48 77.03 257.08 77.03 257.08 93.33 254.88 93.33 254.88 77.03 233.58 77.03"/><polygon class="cls-4" points="239.18 82.64 239.18 128.13 249.28 128.13 249.28 110.73 262.78 110.73 262.78 128.13 272.78 128.13 272.78 82.64 262.78 82.64 262.78 98.94 249.28 98.94 249.28 82.64 239.18 82.64"/><polygon class="cls-5" points="239.18 82.64 239.18 128.13 249.28 128.13 249.28 110.73 262.78 110.73 262.78 128.13 272.78 128.13 272.78 82.64 262.78 82.64 262.78 98.94 249.28 98.94 249.28 82.64 239.18 82.64"/><polygon class="cls-6" points="254.88 77.03 249.28 82.64 239.18 82.64 239.18 128.13 233.58 133.74 233.58 77.03 254.88 77.03"/><polygon class="cls-3" points="254.88 77.03 249.28 82.64 239.18 82.64 239.18 128.13 233.58 133.74 233.58 77.03 254.88 77.03"/><polygon class="cls-6" points="249.28 98.94 254.88 93.33 257.08 93.33 257.08 77.03 278.48 77.03 272.78 82.64 262.78 82.64 262.78 98.94 249.28 98.94"/><polygon class="cls-3" points="249.28 98.94 254.88 93.33 257.08 93.33 257.08 77.03 278.48 77.03 272.78 82.64 262.78 82.64 262.78 98.94 249.28 98.94"/><polygon class="cls-6" points="262.78 110.73 257.08 116.33 257.08 133.74 262.78 128.13 262.78 110.73"/><polygon class="cls-3" points="262.78 110.73 257.08 116.33 257.08 133.74 262.78 128.13 262.78 110.73"/><path class="cls-2" d="M196.58,133.73h23s19.6,0,19.6-20.2c0-7.1-2.4-11.7-5.6-14.7h0l9-21.7h-23s-17.9,0-17.9,20.2a20.86,20.86,0,0,0,4.5,13.5h-9.5v22.9h-.1Z"/><path class="cls-3" d="M196.58,133.73h23s19.6,0,19.6-20.2c0-7.1-2.4-11.7-5.6-14.7h0l9-21.7h-23s-17.9,0-17.9,20.2a20.86,20.86,0,0,0,4.5,13.5h-9.5v22.9h-.1Z"/><path class="cls-4" d="M225.18,98.93a2.8,2.8,0,1,1,0-5.6h4.5l4.5-10.7h-14.6s-12.3,0-12.3,14.6c0,10.4,5.9,12.9,9.5,13.5a2.8,2.8,0,1,1,0,5.6h-20.2l5.6,11.8h17.4s14,.1,14-14.6c0-8.8-5-12.9-9.1-14.8l.7.2Z"/><path class="cls-5" d="M225.18,98.93a2.8,2.8,0,1,1,0-5.6h4.5l4.5-10.7h-14.6s-12.3,0-12.3,14.6c0,10.4,5.9,12.9,9.5,13.5a2.8,2.8,0,1,1,0,5.6h-20.2l5.6,11.8h17.4s14,.1,14-14.6c0-8.8-5-12.9-9.1-14.8l.7.2Z"/><path class="cls-6" d="M196.58,116.33l5.6,11.8-5.6,5.6v-23l9.4.1c3.6,4.1,8.5,5.1,11.4,5.4l-20.8.1Z"/><path class="cls-3" d="M196.58,116.33l5.6,11.8-5.6,5.6v-23l9.4.1c3.6,4.1,8.5,5.1,11.4,5.4l-20.8.1Z"/><path class="cls-6" d="M209.18,106a16.81,16.81,0,0,1-2-8.8c0-15.7,15.1-14.6,12.3-14.6h14.6l8.4-5.6h-23s-17.9,0-17.9,20.2a21.48,21.48,0,0,0,2.9,11.6,3,3,0,0,0,2.4,1.3,2.86,2.86,0,0,0,2.8-2.8c.1-.5-.3-.9-.5-1.3Z"/><path class="cls-3" d="M209.18,106a16.81,16.81,0,0,1-2-8.8c0-15.7,15.1-14.6,12.3-14.6h14.6l8.4-5.6h-23s-17.9,0-17.9,20.2a21.48,21.48,0,0,0,2.9,11.6,3,3,0,0,0,2.4,1.3,2.86,2.86,0,0,0,2.8-2.8c.1-.5-.3-.9-.5-1.3Z"/><polygon class="cls-2" points="48.58 77.03 41.28 84.33 41.28 77.03 10.48 77.03 34.58 133.74 45.78 133.74 48.58 128.13 51.38 133.74 62.58 133.74 86.68 77.03 55.88 77.03 55.88 84.94 48.58 77.03"/><path class="cls-3" d="M48.58,77l-7.3,7.3V77H10.48l24.1,56.6h11.2l2.8-5.6,2.8,5.6h11.2L86.68,77H55.88v7.8L48.58,77Zm-29.7,5.6L38,127.53"/><polygon class="cls-8" points="18.88 82.64 34.58 82.64 34.58 101.23 48.58 86.64 62.58 101.23 62.58 82.64 78.28 82.64 59.18 128.13 54.18 128.13 48.58 116.33 42.98 128.13 37.88 128.13 18.88 82.64"/><polygon class="cls-3" points="18.88 82.64 34.58 82.64 34.58 101.23 48.58 86.64 62.58 101.23 62.58 82.64 78.28 82.64 59.18 128.13 54.18 128.13 48.58 116.33 42.98 128.13 37.88 128.13 18.88 82.64"/><polygon class="cls-6" points="34.58 82.64 41.28 77.03 10.48 77.03 34.58 133.74 37.88 128.13 18.88 82.64 34.58 82.64"/><polygon class="cls-3" points="34.58 82.64 41.28 77.03 10.48 77.03 34.58 133.74 37.88 128.13 18.88 82.64 34.58 82.64"/><polygon class="cls-6" points="48.58 77.03 48.58 86.64 34.58 101.23 41.28 84.33 48.58 77.03"/><polygon class="cls-3" points="48.58 77.03 48.58 86.64 34.58 101.23 41.28 84.33 48.58 77.03"/><polygon class="cls-6" points="86.68 77.03 55.88 77.03 55.88 84.94 62.58 101.23 62.58 82.64 78.28 82.64 86.68 77.03"/><polygon class="cls-3" points="86.68 77.03 55.88 77.03 55.88 84.94 62.58 101.23 62.58 82.64 78.28 82.64 86.68 77.03"/><path class="cls-2" d="M132.08,41.73H131s-1.7-24.1-23-24.1S84.48,35,84.48,47.33s5,26.9,23.5,26.9h24.1V41.73Z"/><path class="cls-3" d="M132.08,41.73H131s-1.7-24.1-23-24.1S84.48,35,84.48,47.33s5,26.9,23.5,26.9h24.1V41.73Z"/><path class="cls-8" d="M126.48,68.63H108s-17.9,2.8-17.9-21.3,11.8-24.1,17.9-24.1,17.4,6.2,17.4,18.5h-11.2s0-5.6-6.2-5.6-5,5.6-5,5.6v9.5s-1.1,5.6,5,5.6h8.4v-5.6h-2.2v-3.9h12.3v21.3Z"/><path class="cls-3" d="M126.48,68.63H108s-17.9,2.8-17.9-21.3,11.8-24.1,17.9-24.1,17.4,6.2,17.4,18.5h-11.2s0-5.6-6.2-5.6-5,5.6-5,5.6v9.5s-1.1,5.6,5,5.6h8.4v-5.6h-2.2v-3.9h12.3v21.3Z"/><path class="cls-6" d="M126.48,47.33l4.5-5.6H108v9.5s-.6,5.6,8.4,5.6v-5.6h-2.2v-3.9Z"/><path class="cls-3" d="M126.48,47.33l4.5-5.6H108v9.5s-.6,5.6,8.4,5.6v-5.6h-2.2v-3.9Z"/><path class="cls-6" d="M94.08,62.73a2.82,2.82,0,0,1-4.7,3.1c-3.7-5.2-4.9-12.1-4.9-18.4,0-12.3,2.2-29.7,23.5-29.7a19.8,19.8,0,0,1,8.5,1.7,3,3,0,0,1,1.3,3.9,2.86,2.86,0,0,1-3.6,1.6,15.82,15.82,0,0,0-6.2-1.6c-6.2,0-17.9,0-17.9,24.1,0,7.1,1.8,12.1,4,15.3Z"/><path class="cls-3" d="M94.08,62.73a2.82,2.82,0,0,1-4.7,3.1c-3.7-5.2-4.9-12.1-4.9-18.4,0-12.3,2.2-29.7,23.5-29.7a19.8,19.8,0,0,1,8.5,1.7,3,3,0,0,1,1.3,3.9,2.86,2.86,0,0,1-3.6,1.6,15.82,15.82,0,0,0-6.2-1.6c-6.2,0-17.9,0-17.9,24.1,0,7.1,1.8,12.1,4,15.3Z"/><polygon class="cls-2" points="121.98 74.23 130.98 68.64 152.88 25.54 152.88 13.73 183.68 74.23 121.98 74.23"/><polygon class="cls-3" points="121.98 74.23 130.98 68.64 152.88 25.54 152.88 13.73 183.68 74.23 121.98 74.23"/><polygon class="cls-8" points="130.98 68.64 152.88 25.54 174.18 68.64 130.98 68.64"/><polygon class="cls-3" points="130.98 68.64 152.88 25.54 174.18 68.64 130.98 68.64"/><polygon class="cls-6" points="121.98 74.23 130.98 68.64 152.88 25.54 152.88 13.73 121.98 74.23"/><polygon class="cls-3" points="121.98 74.23 130.98 68.64 152.88 25.54 152.88 13.73 121.98 74.23"/><polygon class="cls-7" points="144.98 59.73 152.88 45.13 160.18 59.73 144.98 59.73"/><polygon class="cls-5" points="144.98 59.73 152.88 45.13 160.18 59.73 144.98 59.73"/><polygon class="cls-9" points="145.28 59.73 152.88 55.13 159.88 59.73 145.28 59.73"/><polygon class="cls-5" points="145.28 59.73 152.88 55.13 159.88 59.73 145.28 59.73"/><polygon class="cls-2" points="193.18 38.44 183.68 17.64 157.88 74.23 228.58 74.23 202.78 17.64 193.18 38.44"/><polygon class="cls-3" points="193.18 38.44 183.68 17.64 157.88 74.23 228.58 74.23 202.78 17.64 193.18 38.44"/><polygon class="cls-6" points="183.68 31.64 183.68 17.64 157.88 74.23 166.88 68.64 183.68 31.64"/><polygon class="cls-3" points="183.68 31.64 183.68 17.64 157.88 74.23 166.88 68.64 183.68 31.64"/><polygon class="cls-6" points="193.28 52.44 202.78 31.64 202.78 17.64 193.28 38.44 193.28 52.44"/><polygon class="cls-3" points="193.28 52.44 202.78 31.64 202.78 17.64 193.28 38.44 193.28 52.44"/><polygon class="cls-8" points="170.48 60.84 166.88 68.64 174.18 68.64 170.48 60.84"/><polygon class="cls-3" points="170.48 60.84 166.88 68.64 174.18 68.64 170.48 60.84"/><polygon class="cls-8" points="196.58 68.64 201.08 59.63 193.18 63.63 185.28 59.63 189.88 68.64 180.88 68.64 173.58 54.13 183.68 31.64 193.28 52.44 202.78 31.64 219.88 68.64 196.58 68.64"/><polygon class="cls-3" points="196.58 68.64 201.08 59.63 193.18 63.63 185.28 59.63 189.88 68.64 180.88 68.64 173.58 54.13 183.68 31.64 193.28 52.44 202.78 31.64 219.88 68.64 196.58 68.64"/><path class="cls-2" d="M248.18,17.63s-33.6,0-33.6,28c0,31.4,33.6,28.6,33.6,28.6h5.6V17.63Z"/><path class="cls-3" d="M248.18,17.63s-33.6,0-33.6,28c0,31.4,33.6,28.6,33.6,28.6h5.6V17.63Zm0,51c-17.4,0-28-6.2-28-23"/><path class="cls-9" d="M238.88,38.93h7.9a1.37,1.37,0,0,1,1.4,1.4h0a1.37,1.37,0,0,1-1.4,1.4h-7.9a1.37,1.37,0,0,1-1.4-1.4h0a1.43,1.43,0,0,1,1.4-1.4Z"/><path class="cls-5" d="M238.88,38.93h7.9a1.37,1.37,0,0,1,1.4,1.4h0a1.37,1.37,0,0,1-1.4,1.4h-7.9a1.37,1.37,0,0,1-1.4-1.4h0a1.43,1.43,0,0,1,1.4-1.4Z"/><path class="cls-9" d="M238.88,53.53h7.9a1.37,1.37,0,0,1,1.4,1.4h0a1.37,1.37,0,0,1-1.4,1.4h-7.9a1.37,1.37,0,0,1-1.4-1.4h0a1.43,1.43,0,0,1,1.4-1.4Z"/><path class="cls-5" d="M238.88,53.53h7.9a1.37,1.37,0,0,1,1.4,1.4h0a1.37,1.37,0,0,1-1.4,1.4h-7.9a1.37,1.37,0,0,1-1.4-1.4h0a1.43,1.43,0,0,1,1.4-1.4Z"/><path class="cls-8" d="M248.18,68.63V56.33h-10.1a3.4,3.4,0,1,1,0-6.8h10.1v-7.9h-10.1a3.4,3.4,0,1,1,0-6.8h10.1V23c-12.9,0-28,5.6-28,22.4-.1,17.1,10.6,23.2,28,23.2Z"/><path class="cls-3" d="M248.18,68.63V56.33h-10.1a3.4,3.4,0,1,1,0-6.8h10.1v-7.9h-10.1a3.4,3.4,0,1,1,0-6.8h10.1V23c-12.9,0-28,5.6-28,22.4-.1,17.1,10.6,23.2,28,23.2Z"/><path class="cls-6" d="M253.78,17.63h-5.6s-33.6,0-33.6,28c0,10,3.4,16.5,8,20.7a2.37,2.37,0,0,0,2.4,1.1,2.86,2.86,0,0,0,2.8-2.8,2.79,2.79,0,0,0-.8-2c-4.3-3.7-6.7-9.2-6.7-17.1,0-16.8,15.1-22.4,28-22.4l5.5-5.5Z"/><path class="cls-3" d="M253.78,17.63h-5.6s-33.6,0-33.6,28c0,10,3.4,16.5,8,20.7a2.37,2.37,0,0,0,2.4,1.1,2.86,2.86,0,0,0,2.8-2.8,2.79,2.79,0,0,0-.8-2c-4.3-3.7-6.7-9.2-6.7-17.1,0-16.8,15.1-22.4,28-22.4l5.5-5.5Z"/><path class="cls-2" d="M251,74.23h23s19.6,0,19.6-20.2c0-7.1-2.4-11.7-5.6-14.7h4.5V17.63H274s-17.9,0-17.9,20.2a20.86,20.86,0,0,0,4.5,13.5H251v22.9Z"/><path class="cls-3" d="M251,74.23h23s19.6,0,19.6-20.2c0-7.1-2.4-11.7-5.6-14.7h4.5V17.63H274s-17.9,0-17.9,20.2a20.86,20.86,0,0,0,4.5,13.5H251v22.9Z"/><path class="cls-4" d="M279.58,39.53a2.8,2.8,0,0,1,0-5.6H288V23.23H274s-12.3,0-12.3,14.6c0,10.4,5.9,12.9,9.5,13.5a2.8,2.8,0,0,1,0,5.6h-14.6v11.8H274s14,.1,14-14.6c0-8.8-5-12.9-9.1-14.8l.7.2Z"/><path class="cls-5" d="M279.58,39.53a2.8,2.8,0,0,1,0-5.6H288V23.23H274s-12.3,0-12.3,14.6c0,10.4,5.9,12.9,9.5,13.5a2.8,2.8,0,0,1,0,5.6h-14.6v11.8H274s14,.1,14-14.6c0-8.8-5-12.9-9.1-14.8l.7.2Z"/><path class="cls-6" d="M256.58,56.93v11.8l-5.6,5.6v-23l9.4.1c3.6,4.1,8.5,5.1,11.4,5.4l-15.2.1Z"/><path class="cls-3" d="M256.58,56.93v11.8l-5.6,5.6v-23l9.4.1c3.6,4.1,8.5,5.1,11.4,5.4l-15.2.1Zm2.3-7.5a14.91,14.91,0,0,0,1.5,2"/><path class="cls-6" d="M263.58,46.63a16.81,16.81,0,0,1-2-8.8c0-15.7,15.1-14.6,12.3-14.6h14l4.5-5.6H274s-17.9,0-17.9,20.2a21.48,21.48,0,0,0,2.9,11.6,3,3,0,0,0,2.4,1.3,2.86,2.86,0,0,0,2.8-2.8c0-.5-.4-.9-.6-1.3Z"/><path class="cls-3" d="M263.58,46.63a16.81,16.81,0,0,1-2-8.8c0-15.7,15.1-14.6,12.3-14.6h14l4.5-5.6H274s-17.9,0-17.9,20.2a21.48,21.48,0,0,0,2.9,11.6,3,3,0,0,0,2.4,1.3,2.86,2.86,0,0,0,2.8-2.8c0-.5-.4-.9-.6-1.3Z"/><path class="cls-2" d="M273.38,105.43a29.4,29.4,0,1,1,29.4,29.4,29.38,29.38,0,0,1-29.4-29.4Zm23.8,0a5.6,5.6,0,1,1,5.6,5.6,5.59,5.59,0,0,1-5.6-5.6Z"/><path class="cls-3" d="M273.38,105.43a29.4,29.4,0,1,1,29.4,29.4,29.38,29.38,0,0,1-29.4-29.4Zm23.8,0a5.6,5.6,0,1,1,5.6,5.6,5.59,5.59,0,0,1-5.6-5.6Z"/><path class="cls-10" d="M279.08,105.43a23.8,23.8,0,1,1,23.8,23.8,23.79,23.79,0,0,1-23.8-23.8Zm12.6,0a11.2,11.2,0,1,1,11.2,11.2,11.18,11.18,0,0,1-11.2-11.2Z"/><path class="cls-11" d="M279.08,105.43a23.8,23.8,0,1,1,23.8,23.8,23.79,23.79,0,0,1-23.8-23.8Zm12.6,0a11.2,11.2,0,1,1,11.2,11.2,11.18,11.18,0,0,1-11.2-11.2Z"/><path class="cls-6" d="M288.08,130.93a29.43,29.43,0,1,1,29.4-51,2.78,2.78,0,1,1-2.8,4.8,23.79,23.79,0,1,0-23.8,41.2,2.79,2.79,0,0,1,1,3.8,2.73,2.73,0,0,1-3.8,1.2Z"/><path class="cls-3" d="M288.08,130.93a29.43,29.43,0,1,1,29.4-51,2.78,2.78,0,1,1-2.8,4.8,23.79,23.79,0,1,0-23.8,41.2,2.79,2.79,0,0,1,1,3.8,2.73,2.73,0,0,1-3.8,1.2Z"/><path class="cls-6" d="M297.38,114.83a2.79,2.79,0,0,1-1-3.8,2.6,2.6,0,0,1,3.7-.8,5.7,5.7,0,0,0,7.7-2.1,5.37,5.37,0,0,0-2.2-7.4,2.78,2.78,0,0,1,2.8-4.8,11,11,0,0,1,4.2,15.1,11.17,11.17,0,0,1-15.3,4.1l.1-.3Z"/><path class="cls-3" d="M297.38,114.83a2.79,2.79,0,0,1-1-3.8,2.6,2.6,0,0,1,3.7-.8,5.7,5.7,0,0,0,7.7-2.1,5.37,5.37,0,0,0-2.2-7.4,2.78,2.78,0,0,1,2.8-4.8,11,11,0,0,1,4.2,15.1,11.17,11.17,0,0,1-15.3,4.1l.1-.3Z"/><polygon class="cls-2" points="163.48 77.03 163.48 133.74 207.18 133.74 193.18 105.14 207.18 77.03 163.48 77.03"/><polygon class="cls-3" points="163.48 77.03 163.48 133.74 207.18 133.74 193.18 105.14 207.18 77.03 163.48 77.03"/><polygon class="cls-4" points="198.78 82.64 187.08 104.53 198.38 128.13 183.08 128.13 183.08 110.73 177.48 110.73 177.48 128.13 169.08 128.13 169.08 82.64 177.48 82.64 177.48 98.94 183.08 98.94 183.08 82.64 198.78 82.64"/><polygon class="cls-5" points="198.78 82.64 187.08 104.53 198.38 128.13 183.08 128.13 183.08 110.73 177.48 110.73 177.48 128.13 169.08 128.13 169.08 82.64 177.48 82.64 177.48 98.94 183.08 98.94 183.08 82.64 198.78 82.64"/><polygon class="cls-6" points="180.28 77.03 177.48 82.64 169.08 82.64 169.08 128.13 163.48 133.74 163.48 77.03 180.28 77.03"/><polygon class="cls-3" points="180.28 77.03 177.48 82.64 169.08 82.64 169.08 128.13 163.48 133.74 163.48 77.03 180.28 77.03"/><polygon class="cls-6" points="207.18 77.03 198.78 82.64 183.08 82.64 183.08 98.94 180.28 98.94 180.28 77.03 207.18 77.03"/><polygon class="cls-3" points="207.18 77.03 198.78 82.64 183.08 82.64 183.08 98.94 180.28 98.94 180.28 77.03 207.18 77.03"/><polygon class="cls-9" points="183.08 110.73 180.28 113.53 180.28 130.94 183.08 128.13 183.08 110.73"/><polygon class="cls-5" points="183.08 110.73 180.28 113.53 180.28 130.94 183.08 128.13 183.08 110.73"/><path class="cls-2" d="M126.48,77v56.6H173l-13.5-23s9.5-3.9,9.5-13.5-6.7-20.2-21.9-20.2c-15,.1-20.6.1-20.6.1Zm15.2,21.9v-5.6h5.6a2.8,2.8,0,1,1,0,5.6Z"/><path class="cls-3" d="M126.48,77v56.6H173l-13.5-23s9.5-3.9,9.5-13.5-6.7-20.2-21.9-20.2c-15,.1-20.6.1-20.6.1Zm15.2,21.9v-5.6h5.6a2.8,2.8,0,1,1,0,5.6Z"/><path class="cls-6" d="M151.08,83a17.42,17.42,0,0,0-3.8-.3h-15.1v45.4l-5.6,5.6V77.13h20.7a21.73,21.73,0,0,1,4.5.3,2.8,2.8,0,1,1,0,5.6Z"/><path class="cls-3" d="M151.08,83a17.42,17.42,0,0,0-3.8-.3h-15.1v45.4l-5.6,5.6V77.13h20.7a21.73,21.73,0,0,1,4.5.3,2.8,2.8,0,1,1,0,5.6Z"/><polygon class="cls-6" points="147.28 110.73 144.48 113.53 144.48 130.94 147.28 128.13 147.28 110.73"/><polygon class="cls-3" points="147.28 110.73 144.48 113.53 144.48 130.94 147.28 128.13 147.28 110.73"/><path class="cls-4" d="M147.28,110.73h-5.6v17.4h-9.5V82.73h15.1s16.3-.6,16.3,14.6c0,5.6-6.7,10.1-11.8,10.7l-.3.1,12.1,20.1h-16.3v-17.5Z"/><path class="cls-5" d="M147.28,110.73h-5.6v17.4h-9.5V82.73h15.1s16.3-.6,16.3,14.6c0,5.6-6.7,10.1-11.8,10.7l-.3.1,12.1,20.1h-16.3v-17.5Z"/><path class="cls-7" d="M141.68,98.93v-5.6h5.6a2.8,2.8,0,1,1,0,5.6Z"/><path class="cls-5" d="M141.68,98.93v-5.6h5.6a2.8,2.8,0,1,1,0,5.6Z"/><path class="cls-2" d="M73.18,105.43a29.4,29.4,0,1,1,29.4,29.4,29.38,29.38,0,0,1-29.4-29.4Zm23.8,0a5.6,5.6,0,1,1,5.6,5.6,5.59,5.59,0,0,1-5.6-5.6Z"/><path class="cls-3" d="M73.18,105.43a29.4,29.4,0,1,1,29.4,29.4,29.38,29.38,0,0,1-29.4-29.4Zm23.8,0a5.6,5.6,0,1,1,5.6,5.6,5.59,5.59,0,0,1-5.6-5.6Z"/><path class="cls-8" d="M78.88,105.43a23.8,23.8,0,1,1,23.8,23.8,23.79,23.79,0,0,1-23.8-23.8Zm12.6,0a11.2,11.2,0,1,1,11.2,11.2,11.18,11.18,0,0,1-11.2-11.2Z"/><path class="cls-3" d="M78.88,105.43a23.8,23.8,0,1,1,23.8,23.8,23.79,23.79,0,0,1-23.8-23.8Zm12.6,0a11.2,11.2,0,1,1,11.2,11.2,11.18,11.18,0,0,1-11.2-11.2Z"/><path class="cls-6" d="M87.88,130.93a29.43,29.43,0,1,1,29.4-51,2.78,2.78,0,1,1-2.8,4.8,23.79,23.79,0,0,0-23.8,41.2,2.79,2.79,0,0,1,1,3.8,2.75,2.75,0,0,1-3.8,1.2Z"/><path class="cls-3" d="M87.88,130.93a29.43,29.43,0,1,1,29.4-51,2.78,2.78,0,1,1-2.8,4.8,23.79,23.79,0,0,0-23.8,41.2,2.79,2.79,0,0,1,1,3.8,2.75,2.75,0,0,1-3.8,1.2Z"/><path class="cls-12" d="M97.18,114.83a2.79,2.79,0,0,1-1-3.8,2.6,2.6,0,0,1,3.7-.8,5.7,5.7,0,0,0,7.7-2.1,5.37,5.37,0,0,0-2.2-7.4,2.78,2.78,0,1,1,2.8-4.8,11,11,0,0,1,4.2,15.1,11.17,11.17,0,0,1-15.3,4.1l.1-.3Z"/><path class="cls-11" d="M97.18,114.83a2.79,2.79,0,0,1-1-3.8,2.6,2.6,0,0,1,3.7-.8,5.7,5.7,0,0,0,7.7-2.1,5.37,5.37,0,0,0-2.2-7.4,2.78,2.78,0,1,1,2.8-4.8,11,11,0,0,1,4.2,15.1,11.17,11.17,0,0,1-15.3,4.1l.1-.3Z"/><path class="cls-13" d="M326.68,143.13V76.93h16.8s23-2.2,23,20.2c0,15.7-17.4,18.5-17.4,18.5v17.9l-22.4,9.6Z"/><path class="cls-14" d="M332.28,82.63V135l11.2-4.6.1-19.2s17.4-.6,17.4-14c0-14-11.8-14.6-11.8-14.6Z"/><path class="cls-15" d="M326.68,143.13V76.93h16.8s7.8-.6,7.8,2.8c0,2.8-2.2,2.8-2.2,2.8h-16.8v52.4l-5.6,8.2Z"/><path class="cls-13" d="M343.48,93.23s5.6-1.1,5.6,3.9-5.6,3.9-5.6,3.9v-7.8Z"/><polygon class="cls-13" points="233.58 77.03 233.58 133.63 254.88 133.63 254.88 116.23 257.08 116.23 257.08 133.63 278.48 133.63 278.48 77.03 257.08 77.03 257.08 93.23 254.88 93.23 254.88 77.03 233.58 77.03"/><polygon class="cls-16" points="239.18 82.64 239.18 128.03 249.28 128.03 249.28 110.64 262.78 110.64 262.78 128.03 272.78 128.03 272.78 82.64 262.78 82.64 262.78 98.94 249.28 98.94 249.28 82.64 239.18 82.64"/><polygon class="cls-15" points="254.88 77.03 249.28 82.64 239.18 82.64 239.18 128.03 233.58 133.63 233.58 77.03 254.88 77.03"/><polygon class="cls-15" points="249.28 98.94 254.88 93.23 257.08 93.23 257.08 77.03 278.48 77.03 272.78 82.64 262.78 82.64 262.78 98.94 249.28 98.94"/><polygon class="cls-15" points="262.78 110.64 257.08 116.23 257.08 133.63 262.78 128.03 262.78 110.64"/><path class="cls-13" d="M196.58,133.63h23s19.6,0,19.6-20.2c0-7.1-2.4-11.7-5.6-14.7h0l9-21.7h-23s-17.9,0-17.9,20.2a20.86,20.86,0,0,0,4.5,13.5h-9.5v22.9h-.1Z"/><path class="cls-16" d="M225.18,98.93a2.8,2.8,0,1,1,0-5.6h4.5l4.5-10.7h-14.6s-12.3,0-12.3,14.6c0,10.4,5.9,12.9,9.5,13.5a2.8,2.8,0,1,1,0,5.6h-20.2l5.6,11.8h17.4s14,.1,14-14.6c0-8.8-5-12.9-9.1-14.8l.7.2Z"/><path class="cls-15" d="M196.58,116.23l5.6,11.8-5.6,5.6v-23l9.4.1c3.6,4.1,8.5,5.1,11.4,5.4l-20.8.1Z"/><path class="cls-15" d="M209.18,105.93a16.81,16.81,0,0,1-2-8.8c0-15.7,15.1-14.6,12.3-14.6h14.6l8.4-5.6h-23s-17.9,0-17.9,20.2a21.48,21.48,0,0,0,2.9,11.6,3,3,0,0,0,2.4,1.3,2.86,2.86,0,0,0,2.8-2.8c.1-.4-.3-.9-.5-1.3Z"/><polygon class="cls-13" points="48.58 76.03 41.28 83.33 41.28 76.03 10.48 76.03 34.58 132.63 45.78 132.63 48.58 127.03 51.38 132.63 62.58 132.63 86.68 76.03 55.88 76.03 55.88 83.83 48.58 76.03"/><line class="cls-17" x1="18.88" y1="82.63" x2="37.88" y2="127.43"/><polygon class="cls-16" points="18.88 82.64 34.58 82.64 34.58 101.14 48.58 86.53 62.58 101.14 62.58 82.64 78.28 82.64 59.18 128.03 54.18 128.03 48.58 116.23 42.98 128.03 37.88 128.03 18.88 82.64"/><polygon class="cls-15" points="34.58 82.64 41.28 77.03 10.48 77.03 34.58 133.63 37.88 128.03 18.88 82.64 34.58 82.64"/><polygon class="cls-15" points="48.58 77.03 48.58 86.53 34.58 101.14 41.28 84.33 48.58 77.03"/><polygon class="cls-15" points="86.68 77.03 55.88 77.03 55.88 84.83 62.58 101.14 62.58 82.64 78.28 82.64 86.68 77.03"/><path class="cls-13" d="M132.08,41.73H131s-1.7-24.1-23-24.1S84.48,35,84.48,47.33s5,26.9,23.5,26.9h24.1V41.73Z"/><path class="cls-16" d="M126.48,68.63H108s-17.9,2.8-17.9-21.3,11.8-24.1,17.9-24.1,17.4,6.2,17.4,18.5h-11.2s0-5.6-6.2-5.6-5,5.6-5,5.6v9.5s-1.1,5.6,5,5.6h8.4v-5.6h-2.2v-3.9h12.3v21.3Z"/><path class="cls-15" d="M126.48,47.33l4.5-5.6H108v9.5s-.6,5.6,8.4,5.6v-5.6h-2.2v-3.9Z"/><path class="cls-15" d="M94.08,62.63a2.82,2.82,0,0,1-4.7,3.1c-3.7-5.2-4.9-12.1-4.9-18.4,0-12.3,2.2-29.7,23.5-29.7a19.8,19.8,0,0,1,8.5,1.7,3,3,0,0,1,1.3,3.9,2.86,2.86,0,0,1-3.6,1.6,15.53,15.53,0,0,0-6.2-1.5c-6.2,0-17.9,0-17.9,24.1,0,7.1,1.8,12,4,15.2Z"/><polygon class="cls-13" points="121.98 74.23 130.98 68.64 152.88 25.43 152.88 13.63 183.68 74.23 121.98 74.23"/><polygon class="cls-16" points="130.98 68.64 152.88 25.43 174.18 68.64 130.98 68.64"/><polygon class="cls-15" points="121.98 74.23 130.98 68.64 152.88 25.43 152.88 13.63 121.98 74.23"/><polygon class="cls-13" points="144.98 59.63 152.88 45.03 160.18 59.63 144.98 59.63"/><polygon class="cls-15" points="145.28 59.63 152.88 55.13 159.88 59.63 145.28 59.63"/><polygon class="cls-13" points="193.18 38.34 183.68 17.64 157.88 74.23 228.58 74.23 202.78 17.64 193.18 38.34"/><polygon class="cls-15" points="183.68 31.64 183.68 17.64 157.88 74.23 166.88 68.64 183.68 31.64"/><polygon class="cls-15" points="193.28 52.44 202.78 31.64 202.78 17.64 193.28 38.34 193.28 52.44"/><polygon class="cls-18" points="170.48 60.73 166.88 68.64 174.18 68.64 170.48 60.73"/><polygon class="cls-16" points="196.58 68.64 201.08 59.53 193.18 63.53 185.28 59.53 189.88 68.64 180.88 68.64 173.58 54.03 183.68 31.64 193.28 52.44 202.78 31.64 219.88 68.64 196.58 68.64"/><path class="cls-13" d="M248.18,17.63s-33.6,0-33.6,28c0,31.4,33.6,28.6,33.6,28.6h5.6V17.63Z"/><path class="cls-19" d="M248.18,68.63c-17.4,0-28-6.2-28-23"/><path class="cls-15" d="M238.88,38.93h7.9a1.37,1.37,0,0,1,1.4,1.4h0a1.37,1.37,0,0,1-1.4,1.4h-7.9a1.37,1.37,0,0,1-1.4-1.4h0a1.43,1.43,0,0,1,1.4-1.4Z"/><path class="cls-15" d="M238.88,53.43h7.9a1.37,1.37,0,0,1,1.4,1.4h0a1.37,1.37,0,0,1-1.4,1.4h-7.9a1.37,1.37,0,0,1-1.4-1.4h0a1.51,1.51,0,0,1,1.4-1.4Z"/><path class="cls-16" d="M248.18,68.63V56.33h-10.1a3.4,3.4,0,1,1,0-6.8h10.1v-7.9h-10.1a3.4,3.4,0,1,1,0-6.8h10.1V23c-12.9,0-28,5.6-28,22.4-.1,17,10.6,23.2,28,23.2Z"/><path class="cls-15" d="M253.78,17.63h-5.6s-33.6,0-33.6,28c0,10,3.4,16.5,8,20.7a2.37,2.37,0,0,0,2.4,1.1,2.86,2.86,0,0,0,2.8-2.8,2.79,2.79,0,0,0-.8-2c-4.3-3.7-6.7-9.2-6.7-17.1,0-16.8,15.1-22.4,28-22.4l5.5-5.5Z"/><path class="cls-13" d="M251,74.23h23s19.6,0,19.6-20.2c0-7.1-2.4-11.7-5.6-14.7h4.5V17.63H274s-17.9,0-17.9,20.2a20.86,20.86,0,0,0,4.5,13.5H251v22.9Z"/><path class="cls-16" d="M279.58,39.43a2.8,2.8,0,0,1,0-5.6H288V23.13H274s-12.3,0-12.3,14.6c0,10.4,5.9,12.9,9.5,13.5a2.8,2.8,0,0,1,0,5.6h-14.6v11.8H274s14,.1,14-14.6c0-8.8-5-12.9-9.1-14.8l.7.2Z"/><path class="cls-15" d="M256.58,56.83v11.8l-5.6,5.6v-23l9.4.1c3.6,4.1,8.5,5.1,11.4,5.4l-15.2.1Z"/><path class="cls-19" d="M258.88,49.43a14.91,14.91,0,0,0,1.5,2"/><path class="cls-15" d="M263.58,46.53a16.81,16.81,0,0,1-2-8.8c0-15.7,15.1-14.6,12.3-14.6h14l4.5-5.6H274s-17.9,0-17.9,20.2a21.48,21.48,0,0,0,2.9,11.6,3,3,0,0,0,2.4,1.3,2.86,2.86,0,0,0,2.8-2.8c0-.4-.4-.9-.6-1.3Z"/><path class="cls-20" d="M273.38,105.33a29.4,29.4,0,1,1,29.4,29.4,29.38,29.38,0,0,1-29.4-29.4Zm23.8,0a5.6,5.6,0,1,1,5.6,5.6,5.59,5.59,0,0,1-5.6-5.6Z"/><path class="cls-13" d="M273.38,105.33a29.4,29.4,0,1,1,29.4,29.4,29.38,29.38,0,0,1-29.4-29.4Zm23.8,0a5.6,5.6,0,1,1,5.6,5.6,5.59,5.59,0,0,1-5.6-5.6Z"/><path class="cls-16" d="M279.08,105.33a23.8,23.8,0,1,1,23.8,23.8,23.79,23.79,0,0,1-23.8-23.8Zm12.6,0a11.2,11.2,0,1,1,11.2,11.2,11.18,11.18,0,0,1-11.2-11.2Z"/><path class="cls-15" d="M288.08,130.83a29.43,29.43,0,1,1,29.4-51,2.78,2.78,0,1,1-2.8,4.8,23.79,23.79,0,1,0-23.8,41.2,2.79,2.79,0,0,1,1,3.8,2.65,2.65,0,0,1-3.8,1.2Z"/><path class="cls-15" d="M297.38,114.83a2.79,2.79,0,0,1-1-3.8,2.6,2.6,0,0,1,3.7-.8,5.7,5.7,0,0,0,7.7-2.1,5.37,5.37,0,0,0-2.2-7.4,2.78,2.78,0,0,1,2.8-4.8,11,11,0,0,1,4.2,15.1,11.17,11.17,0,0,1-15.3,4.1l.1-.3Z"/><polygon class="cls-13" points="163.48 77.03 163.48 133.63 207.18 133.63 193.18 105.03 207.18 77.03 163.48 77.03"/><polygon class="cls-16" points="198.78 82.64 187.08 104.53 198.38 128.13 183.08 128.03 183.08 110.64 177.48 110.64 177.48 128.03 169.08 128.03 169.08 82.64 177.48 82.64 177.48 98.94 183.08 98.94 183.08 82.64 198.78 82.64"/><polygon class="cls-15" points="180.28 77.03 177.48 82.64 169.08 82.64 169.08 128.03 163.48 133.63 163.48 77.03 180.28 77.03"/><polygon class="cls-15" points="207.18 77.03 198.78 82.64 183.08 82.64 183.08 98.94 180.28 98.94 180.28 77.03 207.18 77.03"/><polygon class="cls-15" points="183.08 110.64 180.28 113.44 180.28 130.84 183.08 128.03 183.08 110.64"/><path class="cls-18" d="M126.48,77v56.6H173l-13.5-23s9.5-3.9,9.5-13.5-6.7-20.2-21.9-20.2c-15,.1-20.6.1-20.6.1Zm15.2,21.9v-5.6h5.6a2.8,2.8,0,1,1,0,5.6Z"/><path class="cls-19" d="M126.48,77v56.6H173l-13.5-23s9.5-3.9,9.5-13.5-6.7-20.2-21.9-20.2c-15,.1-20.6.1-20.6.1Zm15.2,21.9v-5.6h5.6a2.8,2.8,0,1,1,0,5.6Z"/><path class="cls-15" d="M151.08,82.93a17.42,17.42,0,0,0-3.8-.3h-15.1V128l-5.6,5.6V77h20.7a21.73,21.73,0,0,1,4.5.3,2.8,2.8,0,1,1,0,5.6Z"/><polygon class="cls-21" points="147.28 110.64 144.48 113.44 144.48 130.84 147.28 128.03 147.28 110.64"/><path class="cls-16" d="M147.28,110.63h-5.6V128h-9.5V82.63h15.1s16.3-.6,16.3,14.6c0,5.6-6.7,10.1-11.8,10.7l-.3.1,12.1,20.1h-16.3v-17.5Z"/><path class="cls-13" d="M141.68,98.93v-5.6h5.6a2.8,2.8,0,1,1,0,5.6Z"/><path class="cls-2" d="M73.18,105.33a29.4,29.4,0,1,1,29.4,29.4,29.38,29.38,0,0,1-29.4-29.4Zm23.8,0a5.6,5.6,0,1,1,5.6,5.6,5.59,5.59,0,0,1-5.6-5.6Z"/><path class="cls-13" d="M73.18,105.33a29.4,29.4,0,1,1,29.4,29.4,29.38,29.38,0,0,1-29.4-29.4Zm23.8,0a5.6,5.6,0,1,1,5.6,5.6,5.59,5.59,0,0,1-5.6-5.6Zm.8,0a5.6,5.6,0,1,1,5.6,5.6,5.59,5.59,0,0,1-5.6-5.6Z"/><path class="cls-16" d="M78.88,105.33a23.8,23.8,0,1,1,23.8,23.8,23.79,23.79,0,0,1-23.8-23.8Zm12.6,0a11.2,11.2,0,1,1,11.2,11.2,11.18,11.18,0,0,1-11.2-11.2Z"/><path class="cls-19" d="M78.88,105.33a23.8,23.8,0,1,1,23.8,23.8,23.79,23.79,0,0,1-23.8-23.8Zm12.6,0a11.2,11.2,0,1,1,11.2,11.2,11.18,11.18,0,0,1-11.2-11.2Z"/><path class="cls-15" d="M87.88,130.83a29.43,29.43,0,1,1,29.4-51,2.78,2.78,0,1,1-2.8,4.8,23.79,23.79,0,0,0-23.8,41.2,2.79,2.79,0,0,1,1,3.8,2.67,2.67,0,0,1-3.8,1.2Z"/><path class="cls-15" d="M97.18,114.83a2.79,2.79,0,0,1-1-3.8,2.6,2.6,0,0,1,3.7-.8,5.7,5.7,0,0,0,7.7-2.1,5.37,5.37,0,0,0-2.2-7.4,2.78,2.78,0,1,1,2.8-4.8,11,11,0,0,1,4.2,15.1,11.17,11.17,0,0,1-15.3,4.1l.1-.3Z"/><polygon class="cls-22" points="162.78 109.33 160.98 110.33 162.78 114.53 162.78 109.33"/><path class="cls-23" d="M370.68,73.23a3.38,3.38,0,1,0,2.4-1,3.1,3.1,0,0,0-2.4,1Zm5.2,5.2a3.87,3.87,0,0,1-5.6,0,3.69,3.69,0,0,1-1.1-2.8,3.78,3.78,0,0,1,1.2-2.8,3.69,3.69,0,0,1,2.8-1.1,4.11,4.11,0,0,1,2.8,1.1,3.78,3.78,0,0,1,1.2,2.8,5.59,5.59,0,0,1-1.3,2.8Zm-2.1-4.3a2,2,0,0,0-.9-.2h-.6v1.6h.7c.3,0,.6,0,.7-.1.3-.1.4-.3.4-.7a.6.6,0,0,0-.3-.6Zm-.8-.7a3.73,3.73,0,0,1,1.2.2,1.13,1.13,0,0,1,.7,1.1,1,1,0,0,1-.4.9,1.42,1.42,0,0,1-.6.2c.3.1.6.2.7.4a1,1,0,0,1,.2.7v.9h-.7v-.4a1.05,1.05,0,0,0-.4-1,1.72,1.72,0,0,0-.8-.1h-.6V78h-.8v-4.6Z"/><circle class="cls-1" cx="102.48" cy="105.13" r="5.8"/><circle class="cls-1" cx="302.48" cy="105.63" r="5.8"/></svg>